<svg width="93" height="90" viewBox="0 0 93 90" fill="none" xmlns="http://www.w3.org/2000/svg">
<path d="M0 0H92.8128V90H0V0Z" fill="#17C75A"/>
<path d="M21.6523 62.4358C19.4431 62.4358 17.6523 60.645 17.6523 58.4358V28.0651H7.9541V22.5879H42.042L37.2321 27.0098C36.4939 27.6885 35.5277 28.0651 34.5249 28.0651H23.9837V62.4358H21.6523Z" fill="white"/>
<circle cx="39.8935" cy="42.5122" r="2.74802" fill="white"/>
<circle cx="51.6704" cy="42.5122" r="2.74802" fill="white"/>
<circle cx="63.4477" cy="42.5122" r="2.74802" fill="white"/>
<path d="M17.73 56.1873H70.6843C79.3914 56.1873 79.3763 57.9713 79.3674 46.5975C79.367 46.0452 79.8147 45.5933 80.367 45.5933H83.4913C84.0443 45.5933 84.4925 46.0414 84.489 46.5944C84.4501 52.7567 84.1728 59.9464 84.1728 67.4124C84.0083 63.6482 74.1514 62.5669 59.1268 62.4492C47.4174 62.3121 33.2856 62.6456 21.6321 62.5014C19.4607 62.4745 17.73 60.6985 17.73 58.527V56.1873Z" fill="white"/>
</svg>
